<svg xmlns="http://www.w3.org/2000/svg" xmlns:xlink="http://www.w3.org/1999/xlink" width="781" zoomAndPan="magnify" viewBox="0 0 585.75 507.750007" height="677" preserveAspectRatio="xMidYMid meet" version="1.0"><defs><clipPath id="a8cd7a569f"><path d="M 39 2 L 583 2 L 583 506.75 L 39 506.75 Z M 39 2 " clip-rule="nonzero"/></clipPath><clipPath id="03c416bd35"><path d="M 266.28125 215 L 362.984375 215 L 362.984375 305.542969 L 266.28125 305.542969 Z M 266.28125 215 " clip-rule="nonzero"/></clipPath></defs><path fill="#37ac00" d="M 168.0625 122.105469 L 136.132812 154.035156 L 123.59375 141.496094 C 114.609375 132.570312 100.945312 146.203125 109.882812 155.207031 C 109.882812 155.207031 129.277344 174.601562 129.277344 174.601562 C 133.0625 178.386719 139.199219 178.386719 142.988281 174.601562 L 181.773438 135.816406 C 190.683594 126.828125 177.078125 113.164062 168.0625 122.105469 Z M 168.0625 122.105469 " fill-opacity="1" fill-rule="nonzero"/><g clip-path="url(#a8cd7a569f)"><path fill="#37ac00" d="M 582.160156 109.566406 C 582.953125 96.050781 573.144531 41.8125 553.988281 52.097656 C 549.40625 54.855469 547.917969 60.816406 550.675781 65.402344 C 585.378906 121.558594 541.644531 198.074219 475.5 196.832031 C 427.378906 196.832031 388.234375 157.683594 388.234375 109.566406 C 386.941406 43.496094 463.578125 -0.367188 519.664062 34.394531 C 524.265625 37.148438 530.203125 35.667969 532.976562 31.078125 C 543.382812 11.636719 488.292969 2.210938 475.5 2.90625 C 416.6875 2.910156 368.84375 50.753906 368.84375 109.566406 C 368.84375 145.636719 386.882812 177.519531 414.367188 196.832031 L 378.539062 196.832031 C 373.179688 196.832031 368.84375 201.175781 368.84375 206.53125 C 368.84375 238.609375 394.9375 264.707031 427.019531 264.707031 L 465.804688 264.707031 L 465.804688 304.566406 L 155.523438 341.070312 L 155.523438 303.492188 L 194.308594 303.492188 C 226.390625 303.492188 252.488281 277.394531 252.488281 245.316406 C 252.488281 239.960938 248.152344 235.617188 242.792969 235.617188 L 206.960938 235.617188 C 291.367188 176.796875 250.015625 42.011719 145.828125 41.695312 C 41.65625 42.058594 0.269531 176.730469 84.699219 235.617188 C 84.695312 235.617188 48.867188 235.617188 48.867188 235.617188 C 43.507812 235.617188 39.167969 239.960938 39.167969 245.316406 C 39.167969 277.394531 65.265625 303.492188 97.347656 303.492188 L 136.132812 303.492188 C 136.132812 303.492188 136.132812 351.972656 136.132812 351.972656 C 136.269531 357.457031 141.339844 362.375 146.964844 361.605469 C 146.964844 361.605469 291.738281 344.570312 291.738281 344.570312 L 232.535156 439.296875 C 211.410156 439.605469 194.308594 456.828125 194.308594 478.023438 L 194.308594 497.417969 C 194.308594 502.777344 198.648438 507.113281 204.007812 507.113281 L 417.324219 507.113281 C 422.683594 507.113281 427.019531 502.777344 427.019531 497.417969 L 427.019531 478.023438 C 427.019531 456.828125 409.921875 439.605469 388.792969 439.296875 L 327 340.421875 C 327 340.421875 476.636719 322.820312 476.636719 322.820312 C 481.40625 322.007812 484.949219 318.027344 485.195312 313.1875 C 485.195312 313.1875 485.195312 264.707031 485.195312 264.707031 L 523.980469 264.707031 C 556.0625 264.707031 582.160156 238.609375 582.160156 206.53125 C 582.160156 201.175781 577.824219 196.835938 572.464844 196.835938 L 536.632812 196.835938 C 564.117188 177.519531 582.160156 145.636719 582.160156 109.566406 Z M 58.5625 148.351562 C 58.5625 100.234375 97.707031 61.085938 145.828125 61.085938 C 261.597656 65.878906 261.566406 230.84375 145.828125 235.617188 C 97.707031 235.617188 58.5625 196.46875 58.5625 148.351562 Z M 59.792969 255.011719 L 231.863281 255.011719 C 227.554688 271.722656 212.347656 284.101562 194.308594 284.101562 L 97.347656 284.101562 C 79.308594 284.101562 64.101562 271.722656 59.792969 255.011719 Z M 407.628906 478.023438 C 407.628906 478.023438 407.628906 487.722656 407.628906 487.722656 L 213.703125 487.722656 C 213.703125 487.722656 213.703125 478.023438 213.703125 478.023438 C 213.703125 467.335938 222.402344 458.632812 233.09375 458.632812 L 326.175781 458.632812 C 331.535156 458.632812 335.871094 454.296875 335.871094 448.9375 C 335.871094 443.578125 331.535156 439.238281 326.175781 439.238281 L 255.4375 439.238281 L 310.664062 350.875 L 375.167969 454.078125 C 377.800781 458.621094 383.570312 458.914062 388.234375 458.632812 C 398.925781 458.632812 407.628906 467.335938 407.628906 478.023438 Z M 561.535156 216.226562 C 557.226562 232.933594 542.019531 245.316406 523.980469 245.316406 L 427.019531 245.316406 C 408.980469 245.316406 393.773438 232.933594 389.464844 216.226562 Z M 561.535156 216.226562 " fill-opacity="1" fill-rule="nonzero"/></g><path fill="#37ac00" d="M 468.230469 75.628906 L 504.589844 75.628906 C 517.308594 75.441406 517.347656 56.441406 504.589844 56.238281 C 504.589844 56.238281 485.195312 56.238281 485.195312 56.238281 L 485.195312 51.390625 C 485.195312 46.035156 480.859375 41.695312 475.5 41.695312 C 470.140625 41.695312 465.804688 46.035156 465.804688 51.390625 L 465.804688 56.484375 C 425.984375 60.351562 428.179688 118.363281 468.230469 119.265625 C 468.230469 119.265625 482.773438 119.265625 482.773438 119.265625 C 489.457031 119.265625 494.894531 124.699219 494.894531 131.382812 C 494.894531 138.070312 489.457031 143.503906 482.773438 143.503906 L 446.410156 143.503906 C 433.691406 143.691406 433.652344 162.695312 446.414062 162.898438 C 446.410156 162.898438 465.804688 162.898438 465.804688 162.898438 L 465.804688 167.746094 C 465.804688 173.101562 470.140625 177.441406 475.5 177.441406 C 480.859375 177.441406 485.195312 173.101562 485.195312 167.746094 L 485.195312 162.652344 C 525.015625 158.785156 522.824219 100.773438 482.773438 99.871094 C 482.773438 99.871094 468.230469 99.871094 468.230469 99.871094 C 452.308594 99.601562 452.296875 75.90625 468.230469 75.628906 Z M 468.230469 75.628906 " fill-opacity="1" fill-rule="nonzero"/><g clip-path="url(#03c416bd35)"><path fill="#37ac00" d="M 342.378906 265.042969 C 336.523438 265.042969 333.585938 272.140625 337.726562 276.28125 C 338.488281 277.042969 338.488281 278.285156 337.726562 279.046875 L 333.519531 283.25 C 332.757812 284.015625 331.519531 284.015625 330.757812 283.25 C 326.613281 279.109375 319.519531 282.050781 319.519531 287.90625 C 319.519531 288.988281 318.644531 289.859375 317.566406 289.859375 L 311.617188 289.859375 C 310.539062 289.859375 309.664062 288.988281 309.664062 287.90625 C 309.664062 282.042969 302.574219 279.105469 298.429688 283.25 C 297.664062 284.015625 296.429688 284.015625 295.667969 283.25 L 291.457031 279.046875 C 290.695312 278.285156 290.695312 277.042969 291.457031 276.28125 C 295.601562 272.140625 292.664062 265.042969 286.804688 265.042969 C 285.726562 265.042969 284.851562 264.171875 284.851562 263.089844 L 284.851562 257.144531 C 284.851562 256.066406 285.726562 255.191406 286.804688 255.191406 C 292.664062 255.191406 295.601562 248.09375 291.457031 243.953125 C 290.695312 243.191406 290.695312 241.953125 291.457031 241.191406 L 295.667969 236.984375 C 296.429688 236.222656 297.664062 236.222656 298.429688 236.984375 C 302.570312 241.125 309.664062 238.1875 309.664062 232.328125 C 309.664062 231.25 310.539062 230.375 311.617188 230.375 L 317.566406 230.375 C 318.644531 230.375 319.519531 231.25 319.519531 232.328125 C 319.519531 238.1875 326.613281 241.125 330.757812 236.984375 C 331.519531 236.222656 332.757812 236.222656 333.519531 236.984375 L 337.726562 241.191406 C 338.488281 241.953125 338.488281 243.191406 337.726562 243.953125 C 333.585938 248.09375 336.523438 255.191406 342.378906 255.191406 C 343.460938 255.191406 344.332031 256.066406 344.332031 257.144531 L 344.332031 263.089844 C 344.332031 264.171875 343.460938 265.042969 342.378906 265.042969 Z M 314.59375 242.402344 C 304.808594 242.402344 296.875 250.335938 296.875 260.117188 C 296.875 269.902344 304.808594 277.832031 314.59375 277.832031 C 324.375 277.832031 332.308594 269.902344 332.308594 260.117188 C 332.308594 250.335938 324.375 242.402344 314.59375 242.402344 Z M 314.59375 245.140625 C 322.863281 245.140625 329.570312 251.847656 329.570312 260.117188 C 329.570312 268.390625 322.863281 275.09375 314.59375 275.09375 C 306.320312 275.09375 299.613281 268.390625 299.613281 260.117188 C 299.613281 251.847656 306.320312 245.140625 314.59375 245.140625 Z M 313.199219 251.804688 C 310.875 252.375 309.203125 254.332031 309.203125 256.59375 C 309.203125 259.289062 311.574219 261.554688 314.59375 261.554688 C 316.015625 261.554688 317.242188 262.5 317.242188 263.773438 C 317.242188 265.042969 316.015625 265.992188 314.59375 265.992188 C 313.488281 265.992188 312.917969 265.53125 312.167969 264.824219 C 311.617188 264.304688 310.75 264.332031 310.234375 264.882812 C 309.714844 265.429688 309.738281 266.296875 310.289062 266.816406 C 311.261719 267.734375 312.097656 268.34375 313.25 268.597656 L 313.273438 269.476562 C 313.289062 270.230469 313.917969 270.828125 314.675781 270.808594 C 315.429688 270.792969 316.027344 270.164062 316.007812 269.410156 L 315.988281 268.5625 C 318.308594 267.992188 319.980469 266.03125 319.980469 263.773438 C 319.980469 261.078125 317.609375 258.816406 314.59375 258.816406 C 313.167969 258.816406 311.941406 257.867188 311.941406 256.59375 C 311.941406 255.324219 313.167969 254.375 314.59375 254.375 C 315.058594 254.375 315.738281 254.597656 316.3125 254.898438 C 316.605469 255.054688 316.878906 255.214844 317.015625 255.417969 C 317.429688 256.046875 318.277344 256.222656 318.910156 255.808594 C 319.542969 255.394531 319.71875 254.542969 319.300781 253.914062 C 318.957031 253.390625 318.339844 252.875 317.589844 252.480469 C 317.070312 252.203125 316.488281 251.984375 315.9375 251.839844 L 315.914062 250.761719 C 315.894531 250.003906 315.265625 249.40625 314.511719 249.425781 C 313.753906 249.445312 313.15625 250.070312 313.175781 250.828125 Z M 271.035156 219.699219 L 314.535156 219.699219 C 314.554688 219.699219 314.574219 219.699219 314.59375 219.699219 C 322.664062 219.699219 330.183594 222.070312 336.496094 226.152344 C 347.632812 233.355469 355.007812 245.882812 355.007812 260.117188 C 355.007812 274.355469 347.632812 286.882812 336.496094 294.082031 C 335.863281 294.492188 335.011719 294.3125 334.601562 293.675781 C 334.191406 293.042969 334.375 292.191406 335.007812 291.78125 C 345.390625 285.070312 352.269531 273.390625 352.269531 260.117188 C 352.269531 246.84375 345.390625 235.167969 335.007812 228.453125 C 329.125 224.648438 322.113281 222.4375 314.59375 222.4375 L 271.035156 222.4375 L 273.453125 224.777344 C 273.996094 225.300781 274.007812 226.171875 273.484375 226.714844 C 272.957031 227.257812 272.089844 227.269531 271.546875 226.746094 L 266.699219 222.054688 C 266.433594 221.796875 266.28125 221.441406 266.28125 221.070312 C 266.28125 220.699219 266.433594 220.34375 266.699219 220.085938 L 271.546875 215.394531 C 272.089844 214.871094 272.957031 214.882812 273.484375 215.425781 C 274.007812 215.96875 273.996094 216.835938 273.453125 217.363281 Z M 358.148438 297.796875 L 355.730469 295.457031 C 355.1875 294.933594 355.175781 294.066406 355.699219 293.523438 C 356.226562 292.980469 357.09375 292.964844 357.636719 293.492188 L 362.484375 298.183594 C 362.75 298.441406 362.902344 298.792969 362.902344 299.164062 C 362.902344 299.535156 362.75 299.890625 362.484375 300.148438 L 357.636719 304.839844 C 357.09375 305.367188 356.226562 305.351562 355.699219 304.808594 C 355.175781 304.265625 355.1875 303.398438 355.730469 302.871094 L 358.148438 300.535156 L 314.59375 300.535156 C 314.574219 300.535156 314.554688 300.535156 314.535156 300.535156 C 306.460938 300.523438 298.941406 298.140625 292.628906 294.046875 C 281.527344 286.839844 274.175781 274.328125 274.175781 260.117188 C 274.175781 245.90625 281.527344 233.398438 292.628906 226.191406 C 293.265625 225.777344 294.113281 225.960938 294.523438 226.59375 C 294.9375 227.226562 294.753906 228.074219 294.121094 228.488281 C 283.769531 235.207031 276.914062 246.867188 276.914062 260.117188 C 276.914062 273.367188 283.769531 285.03125 294.121094 291.75 C 300.003906 295.566406 307.015625 297.785156 314.539062 297.796875 C 314.554688 297.796875 314.574219 297.796875 314.59375 297.796875 Z M 358.148438 297.796875 " fill-opacity="1" fill-rule="evenodd"/></g></svg>